<?xml version="1.0" standalone="no"?>
<!DOCTYPE svg PUBLIC "-//W3C//DTD SVG 20010904//EN"
 "http://www.w3.org/TR/2001/REC-SVG-20010904/DTD/svg10.dtd">
<svg version="1.0" xmlns="http://www.w3.org/2000/svg"
 width="592.000000pt" height="592.000000pt" viewBox="0 0 592.000000 592.000000"
 preserveAspectRatio="xMidYMid meet">
<metadata>
Created by potrace 1.11, written by Peter Selinger 2001-2013
</metadata>
<g transform="translate(0.000000,592.000000) scale(0.100000,-0.100000)"
fill="#000000" stroke="none">
<path d="M260 4837 c0 -5 7 -37 16 -71 9 -33 18 -70 20 -81 5 -29 15 -74 73
-320 29 -121 54 -229 56 -240 2 -11 6 -29 9 -40 3 -11 14 -62 25 -113 12 -51
23 -97 26 -102 3 -5 7 -21 9 -37 2 -15 14 -68 26 -118 24 -96 29 -119 35 -150
2 -11 9 -40 15 -65 6 -25 13 -58 16 -75 3 -16 7 -37 10 -45 3 -8 8 -26 11 -40
2 -14 17 -79 33 -145 16 -66 31 -131 34 -145 8 -36 25 -112 31 -135 13 -53 17
-73 25 -112 5 -23 16 -68 24 -100 8 -32 17 -70 19 -84 3 -14 16 -72 30 -130
28 -112 76 -317 92 -390 2 -11 6 -28 9 -37 3 -9 7 -28 10 -42 6 -36 33 -150
91 -395 8 -33 16 -71 19 -85 2 -14 11 -53 20 -88 9 -34 21 -82 26 -105 9 -43
39 -174 44 -192 2 -5 6 -27 11 -47 4 -21 12 -39 19 -39 54 -6 1289 -2 1293 4
2 4 6 17 9 30 4 24 11 55 20 89 3 13 7 34 10 48 3 14 14 61 25 105 11 44 22
91 24 105 4 23 8 40 19 87 2 10 14 61 25 113 12 52 26 113 32 135 5 22 12 51
15 65 2 14 11 51 19 83 8 32 17 73 20 90 3 18 12 57 20 87 8 30 16 66 19 80 3
14 11 48 16 75 6 28 13 59 16 70 10 49 13 64 29 130 19 79 18 73 40 175 9 41
18 82 20 90 11 41 77 328 79 345 2 11 11 49 19 85 9 36 18 76 21 90 23 125 38
150 49 85 3 -16 8 -40 11 -51 2 -12 14 -66 26 -120 12 -55 24 -108 26 -119 3
-11 7 -31 10 -45 3 -14 19 -86 35 -160 17 -74 39 -175 50 -225 11 -49 22 -99
25 -110 2 -11 7 -33 9 -50 3 -16 8 -38 11 -47 3 -9 7 -27 10 -40 9 -43 24
-113 29 -133 11 -45 16 -72 21 -100 3 -16 12 -57 21 -90 8 -33 17 -73 20 -90
2 -16 13 -66 23 -110 19 -80 48 -213 56 -250 2 -11 6 -30 8 -43 3 -13 7 -31
10 -40 3 -9 7 -28 10 -42 3 -14 14 -67 25 -118 11 -50 29 -133 40 -183 11 -50
23 -94 26 -97 4 -4 295 -7 647 -7 702 0 650 -5 661 60 4 26 59 263 87 380 18
73 61 260 66 284 3 14 7 28 9 31 2 4 7 21 10 38 3 18 19 88 35 156 16 68 31
135 34 148 2 13 12 52 21 88 10 36 19 74 20 85 2 11 8 40 15 65 7 25 14 56 16
70 3 14 9 39 14 55 5 17 14 57 21 90 19 90 64 283 82 350 6 22 11 45 11 50 1
6 5 24 9 40 4 17 10 40 12 53 6 26 6 25 38 162 51 209 69 289 82 358 3 15 9
36 12 47 4 11 8 25 9 30 6 21 14 61 19 85 3 14 9 40 15 59 5 19 7 38 4 42 -3
5 -1 9 3 9 5 0 9 8 10 18 1 9 14 67 28 127 15 61 29 121 31 135 3 14 7 33 10
42 3 9 7 25 9 35 11 52 67 292 74 318 14 47 42 172 46 203 2 15 4 27 5 27 1 0
3 9 5 21 l4 21 -556 -1 -557 -1 -17 -95 c-9 -52 -19 -113 -23 -135 -3 -22 -8
-53 -11 -70 -13 -76 -17 -102 -21 -130 -2 -16 -6 -41 -9 -55 -3 -14 -8 -45
-11 -70 -3 -25 -7 -52 -9 -60 -2 -8 -16 -89 -30 -180 -31 -201 -38 -241 -49
-295 -2 -11 -7 -45 -11 -75 -4 -30 -9 -64 -11 -75 -2 -11 -13 -76 -25 -145
-25 -159 -28 -174 -39 -240 -5 -30 -12 -73 -15 -95 -2 -22 -7 -51 -10 -65 -3
-14 -8 -41 -10 -60 -2 -19 -8 -56 -14 -82 -6 -25 -13 -68 -16 -95 -6 -50 -11
-81 -19 -123 -6 -33 -34 -205 -42 -255 -6 -45 -14 -92 -19 -115 -2 -8 -4 -21
-4 -29 -2 -30 -13 0 -30 80 -10 46 -28 126 -40 177 -12 51 -23 103 -25 115 -3
12 -5 22 -6 22 -1 0 -3 7 -5 15 -1 8 -8 42 -16 75 -7 33 -14 67 -15 75 -2 8
-7 33 -13 55 -6 22 -17 69 -25 105 -23 100 -46 202 -53 230 -3 14 -8 34 -10
45 -2 11 -13 58 -24 105 -10 47 -22 96 -25 110 -3 14 -7 32 -9 40 -8 32 -36
156 -41 179 -3 12 -12 53 -20 90 -9 36 -18 77 -21 91 -2 14 -15 70 -28 125
-13 55 -26 111 -29 125 -9 46 -15 71 -21 90 -3 10 -8 29 -11 42 -2 13 -8 41
-13 63 -5 22 -25 110 -44 195 -20 85 -38 166 -41 180 -3 14 -9 40 -15 58 -10
34 -11 37 -11 50 0 4 -259 8 -575 8 l-576 0 -5 -25 c-3 -14 -11 -44 -16 -66
-6 -22 -12 -49 -14 -60 -7 -37 -12 -59 -28 -126 -8 -37 -17 -78 -20 -90 -2
-13 -14 -64 -26 -114 -11 -49 -23 -103 -25 -118 -3 -16 -7 -33 -11 -38 -3 -5
-7 -22 -9 -37 -3 -22 -22 -108 -50 -232 -2 -8 -11 -49 -20 -90 -9 -41 -18 -82
-20 -90 -38 -156 -57 -240 -59 -260 -3 -21 -14 -69 -43 -190 -3 -14 -7 -30 -9
-36 -1 -7 -10 -45 -19 -85 -9 -41 -19 -85 -21 -99 -3 -14 -7 -31 -10 -39 -2
-8 -7 -30 -10 -50 -3 -20 -9 -47 -13 -61 -5 -14 -14 -50 -20 -80 -16 -80 -17
-84 -46 -210 -14 -63 -33 -144 -41 -180 -21 -82 -19 -76 -29 -134 -9 -54 -19
-47 -29 20 -4 22 -8 49 -10 60 -2 12 -7 45 -11 74 -4 29 -9 62 -11 74 -7 32
-35 197 -39 231 -2 17 -6 41 -9 55 -4 14 -8 43 -11 65 -2 22 -7 51 -10 65 -3
14 -7 41 -10 60 -3 19 -7 46 -10 60 -3 14 -8 45 -10 70 -3 25 -8 52 -10 60 -5
18 -11 57 -20 120 -3 25 -10 68 -15 95 -5 28 -12 66 -14 85 -3 19 -8 46 -11
60 -2 13 -7 42 -10 65 -3 22 -8 47 -10 55 -2 8 -7 37 -10 64 -3 27 -7 51 -9
55 -2 3 -7 33 -10 66 -4 33 -9 69 -11 80 -5 23 -13 65 -21 115 -5 32 -28 171
-40 245 -3 17 -7 47 -9 67 -2 21 -6 41 -8 45 -3 5 -8 31 -11 58 -3 28 -10 77
-16 110 -6 33 -13 71 -15 85 -7 57 -16 116 -21 131 -4 14 -66 15 -569 15 -338
0 -565 -3 -565 -9z"/>
</g>
</svg>
