<svg xmlns="http://www.w3.org/2000/svg" viewBox="0 0 69 69"><defs><style>.cls-1{fill:none;stroke:#000;stroke-linecap:round;stroke-miterlimit:10;stroke-width:5px;}</style></defs><g id="Layer_2" data-name="Layer 2"><g id="muted"><path d="M34,7.86V34.34L17.77,18.11l12.07-12A2.44,2.44,0,0,1,34,7.86Z"/><path d="M34,45.66V61.18a2.43,2.43,0,0,1-4.14,1.72L11.76,45H2.65A2.65,2.65,0,0,1,0,42.35V26.65A2.65,2.65,0,0,1,2.65,24h9.2l.25-.24Z"/><path d="M47.5,34.5a10.82,10.82,0,0,1-4.61,8.73l-3.61-3.61A5.91,5.91,0,0,0,42.5,34.5a6.13,6.13,0,0,0-4.2-5.58,2.5,2.5,0,0,1,1.79-4.67A11.08,11.08,0,0,1,47.5,34.5Z"/><path d="M57.89,34.5A21.27,21.27,0,0,1,50.3,50.64l-3.56-3.56a16.05,16.05,0,0,0-3.51-27.36,2.51,2.51,0,0,1,2.14-4.53A21.33,21.33,0,0,1,57.89,34.5Z"/><path d="M68.37,34.5a29.45,29.45,0,0,1-11.24,23l-3.56-3.56a24.59,24.59,0,0,0,9.8-19.41c0-8.87-4.92-17-13.16-21.66a2.5,2.5,0,0,1,2.47-4.35C62.5,14.09,68.37,23.81,68.37,34.5Z"/><line class="cls-1" x1="2.5" y1="2.5" x2="66.5" y2="66.5"/></g></g></svg>