<?xml version="1.0" encoding="utf-8"?>
<!-- Generator: Adobe Illustrator 24.1.2, SVG Export Plug-In . SVG Version: 6.00 Build 0)  -->
<svg version="1.1" xmlns="http://www.w3.org/2000/svg" xmlns:xlink="http://www.w3.org/1999/xlink" x="0px" y="0px"
	 viewBox="0 0 100 100" style="enable-background:new 0 0 100 100;" xml:space="preserve">
<style type="text/css">
	.st0{display:none;}
</style>
<g id="Layer_2" class="st0">
	
		<image style="display:inline;overflow:visible;opacity:0.61;" width="842" height="596" xlink:href="1062663F.jpg"  transform="matrix(0.1188 0 0 0.1188 5.882353e-02 14.6669)">
	</image>
</g>
<g id="Layer_1">
	<g>
		<path d="M80.9,44.6V33.2H69.3v-2h-0.1V21.1c0-10.1-8.7-18.3-19.4-18.3S30.5,11,30.5,21.1v12.1H18.8V45h-1.9v38.6h1.9v11.7h11.3
			v1.9h39.7v-1.8l11.1-0.1V84.1h2.3V44.6H80.9z M49.8,6.4c8.7,0,15.7,6.6,15.7,14.6v10.1H34.1V21.1C34.1,13,41.2,6.4,49.8,6.4z
			 M77.3,80.5v11.2H66.7v-6.8h3.8v-6.2h-1.1v5.1h-5.2v1.1h1.8v8.6l-8.1,0v-8.6h4.7v-1.1H44.5v1.1h12.7v8.6l-14.8,0v-8.6h0.2v-1.1H37
			v1.1h4.8v8.6l-8.1,0v-1.9H22.4V81.1h6.9v3.8h2.2v-1.1h-1.2v-5.4h-1.1v2h-6.9V80h-1.9v-7.7h8.8v4.1h1.1v-4.8h-1.1v0.1h-8.8V56.9
			h8.8v0.2h1.1v-5h-1.1v4.2h-8.8v-7.5h1.9V36.8h10.7v6.8H33v1.1h1.9v-1.1h-1.2v-6.8h0.6v-2h7.4v8.8H37v1.1h5.5v-1.1h-0.2v-8.8h14.8
			v8.8h-0.1v1.1h5.4v-1.1h-4.7v-8.8h7.8v2h11.6v10.6h-7.5v0h-0.3V50h1.1v-1.9h6.8v0.1h2.3v8h-9.1V52h-1.1v5h1.1v-0.2h9.1v14.8h-9.1
			v0h-1.1v4.7h1.1v-4.1h9.1v8.2H77.3z"/>
		<polygon points="61.9,48.4 60.8,48.4 60.8,63.7 50.5,63.7 50.5,48.4 49.5,48.4 49.5,63.7 39,63.7 39,48.4 37.9,48.4 37.9,63.7 
			34.1,63.7 34.1,64.8 37.9,64.8 37.9,80.2 39,80.2 39,64.8 49.5,64.8 49.5,80.2 50.5,80.2 50.5,64.8 60.8,64.8 60.8,80.2 
			61.9,80.2 61.9,64.8 65.9,64.8 65.9,63.7 61.9,63.7 		"/>
		<rect x="29.2" y="58.8" width="1.1" height="10.7"/>
		<rect x="33" y="83.9" width="2" height="1.1"/>
		<rect x="69.4" y="58.9" width="1.1" height="10.6"/>
		<rect x="44.6" y="43.5" width="10.5" height="1.1"/>
		<rect x="29.2" y="43.5" width="2.1" height="1.1"/>
		<rect x="29.2" y="47.5" width="1.1" height="2.5"/>
		<polygon points="69.4,45.7 70.5,45.7 70.5,43.5 64.8,43.5 64.8,44.6 69.4,44.6 		"/>
	</g>
</g>
</svg>
