<?xml version="1.0" encoding="utf-8"?>
<!-- Generator: Adobe Illustrator 24.1.2, SVG Export Plug-In . SVG Version: 6.00 Build 0)  -->
<svg version="1.1" xmlns="http://www.w3.org/2000/svg" xmlns:xlink="http://www.w3.org/1999/xlink" x="0px" y="0px"
	 viewBox="0 0 328 328" style="enable-background:new 0 0 328 328;" xml:space="preserve">
<style type="text/css">
	.st0{display:none;}
	.st1{display:inline;}
	.st2{fill:#FF0000;}
	.st3{display:inline;fill:#FF0000;}
</style>
<g id="Layer_3">
</g>
<g id="Layer_1" xmlns:ev="http://www.w3.org/2001/xml-events">
	<g>
		<polygon points="200,152 200,160 192,160 192,152 184,152 184,160 184,168 192,168 200,168 208,168 216,168 216,160 216,152 
			208,152 		"/>
		<rect x="264" y="200" width="8" height="8"/>
		<rect x="232" y="168" width="8" height="8"/>
		<rect x="80" y="128" width="8" height="8"/>
		<rect x="192" y="144" width="8" height="8"/>
		<polygon points="112,256 104,256 104,248 96,248 96,256 96,264 104,264 112,264 112,272 104,272 104,280 112,280 120,280 120,288 
			128,288 128,296 136,296 136,288 136,280 136,272 128,272 128,264 120,264 120,256 120,248 112,248 		"/>
		<rect x="184" y="72" width="8" height="8"/>
		<polygon points="160,256 152,256 152,264 144,264 144,272 152,272 152,280 144,280 144,288 152,288 152,296 160,296 160,288 
			168,288 168,296 176,296 176,288 176,280 184,280 184,272 176,272 168,272 168,280 160,280 160,272 168,272 168,264 160,264 		"/>
		<polygon points="96,288 96,296 112,296 112,288 104,288 104,280 96,280 		"/>
		<polygon points="224,168 216,168 216,176 208,176 208,184 216,184 224,184 224,176 		"/>
		<polygon points="88,160 80,160 80,168 88,168 96,168 96,160 		"/>
		<polygon points="280,184 288,184 288,176 280,176 272,176 272,184 		"/>
		<rect x="120" y="96" width="8" height="8"/>
		<polygon points="208,136 208,128 208,120 208,112 200,112 192,112 192,120 200,120 200,128 192,128 192,136 200,136 200,144 
			208,144 		"/>
		<rect x="96" y="152" width="8" height="8"/>
		<polygon points="136,88 136,80 144,80 144,72 136,72 128,72 120,72 120,80 128,80 128,88 128,96 136,96 		"/>
		<rect x="144" y="48" width="8" height="8"/>
		<polygon points="152,40 160,40 168,40 176,40 184,40 184,32 128,32 128,40 136,40 136,48 144,48 144,40 		"/>
		<polygon points="280,216 288,216 288,208 280,208 272,208 272,216 		"/>
		<polygon points="168,48 168,56 176,56 176,64 176,72 184,72 184,64 184,56 184,48 176,48 		"/>
		<rect x="232" y="104" width="8" height="8"/>
		<rect x="56" y="104" width="8" height="8"/>
		<polygon points="192,48 192,56 200,56 208,56 208,48 200,48 200,40 208,40 208,32 192,32 192,40 184,40 184,48 		"/>
		<rect x="128" y="152" width="8" height="8"/>
		<polygon points="56,128 64,128 72,128 72,120 64,120 56,120 56,112 48,112 48,120 40,120 32,120 32,168 40,168 40,160 40,152 
			40,144 40,136 48,136 48,128 		"/>
		<polygon points="48,208 40,208 32,208 32,224 40,224 48,224 48,216 		"/>
		<rect x="136" y="56" width="8" height="8"/>
		<rect x="104" y="88" width="8" height="8"/>
		<polygon points="112,104 104,104 104,112 112,112 120,112 120,104 		"/>
		<rect x="112" y="80" width="8" height="8"/>
		<polygon points="104,72 96,72 96,80 96,88 104,88 104,80 		"/>
		<rect x="240" y="128" width="8" height="8"/>
		<rect x="232" y="120" width="8" height="8"/>
		<rect x="32" y="176" width="8" height="8"/>
		<rect x="88" y="104" width="8" height="8"/>
		<rect x="184" y="120" width="8" height="8"/>
		<polygon points="56,216 56,224 48,224 48,232 56,232 64,232 72,232 72,224 64,224 64,216 64,208 56,208 		"/>
		<polygon points="80,104 88,104 88,96 80,96 72,96 64,96 64,104 72,104 		"/>
		<polygon points="224,88 232,88 232,80 232,72 224,72 224,80 		"/>
		<rect x="248" y="200" width="8" height="8"/>
		<rect x="80" y="112" width="8" height="8"/>
		<rect x="184" y="288" width="8" height="8"/>
		<polygon points="64,72 72,72 72,64 72,56 72,48 64,48 56,48 48,48 48,56 48,64 48,72 56,72 		"/>
		<polygon points="48,104 48,96 40,96 32,96 32,104 40,104 		"/>
		<path d="M48,88h8h8h8h8h8v-8v-8v-8v-8v-8v-8v-8H32v56h8H48z M40,72v-8v-8v-8v-8h8h8h8h8h8v8v8v8v8v8h-8h-8h-8h-8h-8V72z"/>
		<polygon points="96,48 96,56 96,64 104,64 112,64 112,56 104,56 104,48 112,48 112,56 120,56 120,64 128,64 128,56 128,48 120,48 
			120,40 120,32 96,32 96,40 		"/>
		<rect x="240" y="240" width="8" height="8"/>
		<polygon points="112,232 104,232 104,224 104,216 112,216 112,224 120,224 120,216 120,208 112,208 112,200 112,192 112,184 
			120,184 120,192 128,192 128,184 136,184 144,184 144,176 144,168 136,168 128,168 128,176 120,176 120,168 128,168 128,160 
			120,160 112,160 112,168 104,168 96,168 96,176 104,176 104,184 96,184 96,176 88,176 80,176 80,184 88,184 88,192 80,192 80,200 
			88,200 88,208 80,208 80,216 88,216 88,224 80,224 80,232 88,232 96,232 96,240 104,240 112,240 120,240 120,232 		"/>
		<polygon points="56,256 48,256 48,264 48,272 48,280 56,280 64,280 72,280 72,272 72,264 72,256 64,256 		"/>
		<path d="M248,224h-8v-8v-8v-8h-8v-8h8v8h8v-8v-8v-8h-8v8h-8h-8v8h-8h-8v-8h-8v-8h-8v8h-8h-8v-8h8v-8h-8v-8v-8v-8h8v-8h-8v-8v-8v-8
			v-8v-8h8v-8v-8h-8v8h-8v-8v-8v-8h-8v-8h-8v8h-8v8h8h8v8v8h-8v-8h-8v8v8h8h8h8v8h-8h-8h-8h-8h-8v8h-8v8h-8v8v8h8v-8h8v-8h8v-8h8h8
			v8h-8v8v8v8v8v8h8v8v8v8h8v-8h8v8v8v8h8v-8h8h8v8h8v8h8v-8h8v8v8h8v-8h8v8v8h-8v8h-8v8h8v8h-8v8h8v8v8v8h-8v8h-8v-8h-8v-8h-8v8v8
			h8v8h64v-8v-8v-8h8h8v8h8v-8h8v-16h-8v8h-8h-8v-8h-8v-8h8h8v8h8v-8v-8v-8v-8h-8v8v8h-8h-8v-8v-8h-8v-8h-8V224z M168,160v8h-8v-8
			v-8h8V160z M168,120v8v8h-8h-8v-8h8v-8v-8h8V120z M240,272v8h-8v-8v-8h8V272z M256,272v8h-8v-8v-8h8V272z M256,240v8v8h-8h-8h-8
			v-8v-8v-8h8h8h8V240z"/>
		<polygon points="208,264 208,256 208,248 208,240 208,232 216,232 216,224 208,224 208,216 200,216 192,216 192,224 192,232 
			200,232 200,240 200,248 192,248 184,248 176,248 176,240 184,240 184,232 176,232 176,224 176,216 168,216 168,224 168,232 
			160,232 160,224 152,224 152,232 152,240 144,240 144,232 136,232 136,224 136,216 128,216 128,224 120,224 120,232 128,232 
			128,240 120,240 120,248 128,248 128,256 136,256 136,248 144,248 152,248 160,248 160,240 168,240 168,248 168,256 168,264 
			176,264 176,256 184,256 192,256 192,264 200,264 200,272 208,272 		"/>
		<path d="M88,280v-8v-8v-8v-8v-8h-8h-8h-8h-8h-8h-8h-8v56h56v-8V280z M80,256v8v8v8v8h-8h-8h-8h-8h-8v-8v-8v-8v-8v-8h8h8h8h8h8V256
			z"/>
		<rect x="288" y="288" width="8" height="8"/>
		<polygon points="264,48 256,48 256,56 256,64 256,72 264,72 272,72 280,72 280,64 280,56 280,48 272,48 		"/>
		<polygon points="72,200 64,200 64,208 72,208 80,208 80,200 		"/>
		<rect x="256" y="208" width="8" height="8"/>
		<polygon points="280,96 272,96 264,96 264,104 272,104 272,112 272,120 280,120 288,120 288,112 280,112 280,104 288,104 296,104 
			296,96 288,96 		"/>
		<rect x="216" y="32" width="8" height="8"/>
		<path d="M240,32v8v8v8v8v8v8v8h8h8h8h8h8h8h8V32H240z M288,48v8v8v8v8h-8h-8h-8h-8h-8v-8v-8v-8v-8v-8h8h8h8h8h8V48z"/>
		<polygon points="256,104 256,96 248,96 248,104 248,112 256,112 		"/>
		<polygon points="264,176 256,176 256,184 256,192 256,200 264,200 264,192 272,192 272,184 264,184 		"/>
		<rect x="264" y="168" width="8" height="8"/>
		<polygon points="256,120 256,128 256,136 264,136 272,136 272,128 272,120 264,120 		"/>
		<polygon points="248,144 248,152 256,152 256,160 248,160 248,152 240,152 232,152 232,144 224,144 224,136 232,136 232,128 
			224,128 224,120 232,120 232,112 224,112 224,104 224,96 224,88 216,88 216,80 216,72 224,72 224,64 232,64 232,56 224,56 216,56 
			216,64 208,64 208,72 208,80 208,88 200,88 200,80 192,80 192,88 192,96 184,96 184,104 192,104 200,104 208,104 216,104 216,112 
			216,120 216,128 216,136 216,144 216,152 224,152 224,160 232,160 240,160 240,168 248,168 248,176 256,176 256,168 264,168 
			264,160 272,160 272,152 280,152 288,152 288,144 280,144 272,144 264,144 256,144 256,136 248,136 		"/>
		<polygon points="80,160 80,152 72,152 64,152 56,152 56,144 64,144 72,144 72,136 64,136 56,136 48,136 48,144 48,152 48,160 
			48,168 56,168 56,160 64,160 64,168 72,168 72,160 		"/>
		<rect x="288" y="160" width="8" height="8"/>
		<rect x="128" y="128" width="8" height="8"/>
		<rect x="128" y="192" width="8" height="8"/>
		<polygon points="280,128 280,136 288,136 296,136 296,128 288,128 		"/>
		<rect x="176" y="200" width="8" height="8"/>
		<polygon points="160,208 160,200 160,192 152,192 152,200 144,200 136,200 136,208 144,208 144,216 144,224 152,224 152,216 
			160,216 168,216 168,208 		"/>
		<polygon points="96,152 96,144 104,144 104,152 112,152 112,144 112,136 104,136 104,128 96,128 96,136 88,136 88,144 80,144 
			80,152 88,152 		"/>
		<rect x="288" y="192" width="8" height="8"/>
		<rect x="72" y="168" width="8" height="8"/>
		<polygon points="72,192 72,184 72,176 64,176 56,176 48,176 48,184 40,184 40,192 32,192 32,200 40,200 48,200 56,200 64,200 
			64,192 		"/>
	</g>
</g>
<g id="Layer_2" class="st0">
	<g class="st1">
		<rect x="256" y="48" class="st2" width="24" height="24"/>
	</g>
	<g class="st1">
		<path class="st2" d="M240,32v56h56V32H240z M288,80h-40V40h40V80z"/>
	</g>
	<rect x="48" y="48" class="st3" width="24" height="24"/>
	<path class="st3" d="M32,32v56h56V32H32z M80,80H40V40h40V80z"/>
</g>
</svg>
