<svg xmlns="http://www.w3.org/2000/svg" viewBox="0 0 68.37 58.2"><defs><style>.cls-1{fill:none;stroke:#000;stroke-linecap:round;stroke-miterlimit:10;stroke-width:5px;}</style></defs><g id="Layer_2" data-name="Layer 2"><g id="sound"><path d="M29.86,57.49,11.76,39.58H2.65A2.65,2.65,0,0,1,0,36.94V21.23a2.65,2.65,0,0,1,2.65-2.65h9.2L29.84.71A2.44,2.44,0,0,1,34,2.44V55.76A2.43,2.43,0,0,1,29.86,57.49Z"/><path class="cls-1" d="M39.62,36.83A8.57,8.57,0,0,0,45,29.08a8.64,8.64,0,0,0-5.8-7.92"/><path class="cls-1" d="M45.5,45.51a18.83,18.83,0,0,0,9.89-16.43A18.94,18.94,0,0,0,44.3,12"/><path class="cls-1" d="M51.9,52.65c8.4-5,14-13.67,14-23.57,0-10.07-5.77-18.9-14.43-23.83"/></g></g></svg>